<svg width="270" height="15" viewBox="0 0 270 15" fill="none" xmlns="http://www.w3.org/2000/svg">
<path d="M10.7634 8.161C10.8954 7.413 11.1814 6.742 11.6214 6.148C12.0688 5.54667 12.6114 5.07733 13.2494 4.74C13.8948 4.40267 14.5694 4.234 15.2734 4.234C16.1094 4.234 16.8024 4.43567 17.3524 4.839C17.9098 5.24233 18.2691 5.81433 18.4304 6.555H17.2314C17.0994 6.10767 16.8538 5.763 16.4944 5.521C16.1351 5.27167 15.6768 5.147 15.1194 5.147C14.5841 5.147 14.0818 5.27167 13.6124 5.521C13.1504 5.763 12.7581 6.115 12.4354 6.577C12.1128 7.03167 11.8964 7.55967 11.7864 8.161C11.7498 8.35167 11.7314 8.57167 11.7314 8.821C11.7314 9.53967 11.9404 10.1117 12.3584 10.537C12.7838 10.955 13.3484 11.164 14.0524 11.164C14.6098 11.164 15.1121 11.043 15.5594 10.801C16.0068 10.559 16.3734 10.2143 16.6594 9.767H17.8584C17.4404 10.5003 16.8831 11.0687 16.1864 11.472C15.4971 11.868 14.7344 12.066 13.8984 12.066C13.2751 12.066 12.7214 11.9377 12.2374 11.681C11.7534 11.417 11.3758 11.0503 11.1044 10.581C10.8331 10.1043 10.6974 9.558 10.6974 8.942C10.6974 8.68533 10.7194 8.425 10.7634 8.161ZM21.6035 12.099C21.0975 12.099 20.6502 11.9963 20.2615 11.791C19.8802 11.5783 19.5832 11.285 19.3705 10.911C19.1578 10.5297 19.0515 10.0897 19.0515 9.591C19.0515 8.909 19.2092 8.28567 19.5245 7.721C19.8398 7.149 20.2725 6.698 20.8225 6.368C21.3798 6.038 21.9995 5.873 22.6815 5.873C23.1875 5.873 23.6348 5.97933 24.0235 6.192C24.4195 6.39733 24.7238 6.69067 24.9365 7.072C25.1565 7.446 25.2665 7.886 25.2665 8.392C25.2665 9.074 25.1052 9.69733 24.7825 10.262C24.4598 10.8267 24.0198 11.274 23.4625 11.604C22.9052 11.934 22.2855 12.099 21.6035 12.099ZM21.7245 11.252C22.2012 11.252 22.6302 11.1237 23.0115 10.867C23.3928 10.603 23.6898 10.2583 23.9025 9.833C24.1225 9.40033 24.2325 8.93833 24.2325 8.447C24.2325 7.88967 24.0712 7.46433 23.7485 7.171C23.4258 6.87033 23.0225 6.72 22.5385 6.72C22.0618 6.72 21.6365 6.852 21.2625 7.116C20.8885 7.37267 20.5988 7.71733 20.3935 8.15C20.1882 8.58267 20.0855 9.04833 20.0855 9.547C20.0855 10.0897 20.2395 10.5113 20.5475 10.812C20.8555 11.1053 21.2478 11.252 21.7245 11.252ZM27.8586 7.083C28.1226 6.73833 28.471 6.45233 28.9036 6.225C29.3363 5.99033 29.8093 5.873 30.3226 5.873C30.792 5.873 31.2063 5.972 31.5656 6.17C31.9323 6.36067 32.2146 6.63933 32.4126 7.006C32.6106 7.36533 32.7096 7.79067 32.7096 8.282C32.7096 8.49467 32.6876 8.722 32.6436 8.964C32.5336 9.57267 32.31 10.1153 31.9726 10.592C31.6426 11.0687 31.2356 11.439 30.7516 11.703C30.275 11.967 29.769 12.099 29.2336 12.099C28.7203 12.099 28.2876 11.9853 27.9356 11.758C27.591 11.5233 27.3416 11.2337 27.1876 10.889L26.4946 14.86H25.4936L27.0556 5.972H28.0566L27.8586 7.083ZM31.6206 8.964C31.65 8.81 31.6646 8.64133 31.6646 8.458C31.6646 7.92267 31.507 7.50467 31.1916 7.204C30.8763 6.896 30.4693 6.742 29.9706 6.742C29.604 6.742 29.2483 6.83367 28.9036 7.017C28.559 7.193 28.262 7.45333 28.0126 7.798C27.7706 8.13533 27.6093 8.52767 27.5286 8.975C27.4993 9.129 27.4846 9.29767 27.4846 9.481C27.4846 10.0163 27.6423 10.4417 27.9576 10.757C28.2803 11.065 28.6873 11.219 29.1786 11.219C29.5526 11.219 29.9083 11.131 30.2456 10.955C30.5903 10.7717 30.8836 10.5113 31.1256 10.174C31.375 9.82933 31.54 9.426 31.6206 8.964ZM34.8852 5.972L35.9082 10.834L38.6472 5.972H39.6812L34.4892 14.838H33.4442L35.1492 11.934L33.7742 5.972H34.8852ZM41.4905 7.116C41.7325 6.72 42.0368 6.412 42.4035 6.192C42.7701 5.972 43.1881 5.862 43.6575 5.862L43.4705 6.896H43.2065C42.6858 6.896 42.2495 7.03533 41.8975 7.314C41.5528 7.59267 41.3218 8.062 41.2045 8.722L40.6215 12H39.6205L40.6875 5.972H41.6885L41.4905 7.116ZM45.473 4.993C45.3117 4.993 45.176 4.94167 45.066 4.839C44.9633 4.729 44.912 4.59333 44.912 4.432C44.912 4.212 44.9927 4.025 45.154 3.871C45.3153 3.70967 45.5023 3.629 45.715 3.629C45.8837 3.629 46.0193 3.68033 46.122 3.783C46.2247 3.88567 46.276 4.02133 46.276 4.19C46.276 4.41 46.1953 4.60067 46.034 4.762C45.8727 4.916 45.6857 4.993 45.473 4.993ZM45.792 5.972L44.725 12H43.724L44.791 5.972H45.792ZM50.006 5.873C50.5267 5.873 50.963 5.98667 51.315 6.214C51.667 6.44133 51.9054 6.72733 52.03 7.072L52.228 5.972H53.24L52.151 12.132C52.0557 12.682 51.8504 13.1697 51.535 13.595C51.227 14.0277 50.8347 14.365 50.358 14.607C49.8814 14.849 49.3534 14.97 48.774 14.97C47.982 14.97 47.355 14.7793 46.893 14.398C46.431 14.024 46.2074 13.518 46.222 12.88H47.223C47.267 13.2467 47.4394 13.54 47.74 13.76C48.048 13.9873 48.444 14.101 48.928 14.101C49.478 14.101 49.9584 13.9287 50.369 13.584C50.7797 13.2393 51.04 12.7553 51.15 12.132L51.37 10.867C51.106 11.219 50.7577 11.5123 50.325 11.747C49.8997 11.9817 49.4267 12.099 48.906 12.099C48.4367 12.099 48.0224 12 47.663 11.802C47.3037 11.5967 47.0214 11.307 46.816 10.933C46.618 10.559 46.519 10.1263 46.519 9.635C46.519 9.415 46.541 9.19133 46.585 8.964C46.695 8.348 46.915 7.809 47.245 7.347C47.5824 6.87767 47.9894 6.51467 48.466 6.258C48.95 6.00133 49.4634 5.873 50.006 5.873ZM51.7 8.975C51.7294 8.821 51.744 8.656 51.744 8.48C51.744 7.94467 51.5827 7.523 51.26 7.215C50.9447 6.89967 50.5414 6.742 50.05 6.742C49.676 6.742 49.3167 6.83 48.972 7.006C48.6347 7.182 48.345 7.43867 48.103 7.776C47.861 8.11333 47.6997 8.50933 47.619 8.964C47.5897 9.118 47.575 9.28667 47.575 9.47C47.575 10.0127 47.7327 10.4417 48.048 10.757C48.3634 11.065 48.7667 11.219 49.258 11.219C49.632 11.219 49.9877 11.131 50.325 10.955C50.6697 10.7717 50.963 10.5113 51.205 10.174C51.4544 9.82933 51.6194 9.42967 51.7 8.975ZM57.9456 5.862C58.5469 5.862 59.0309 6.03067 59.3976 6.368C59.7643 6.698 59.9476 7.17833 59.9476 7.809C59.9476 8.04367 59.9293 8.25633 59.8926 8.447L59.2656 12H58.2756L58.8806 8.59C58.9099 8.436 58.9246 8.27467 58.9246 8.106C58.9246 7.65867 58.7999 7.31767 58.5506 7.083C58.3086 6.84833 57.9676 6.731 57.5276 6.731C56.9996 6.731 56.5486 6.896 56.1746 7.226C55.8079 7.556 55.5696 8.03633 55.4596 8.667V8.645L54.8656 12H53.8646L55.3056 3.86H56.3066L55.7786 6.841C56.0279 6.533 56.3433 6.29467 56.7246 6.126C57.1133 5.95 57.5203 5.862 57.9456 5.862ZM62.4187 10.35C62.3967 10.46 62.3857 10.5553 62.3857 10.636C62.3857 10.8193 62.4407 10.9513 62.5507 11.032C62.6681 11.1127 62.8551 11.153 63.1117 11.153H63.8487L63.6947 12H62.7927C62.3161 12 61.9567 11.9083 61.7147 11.725C61.4801 11.5417 61.3627 11.241 61.3627 10.823C61.3627 10.6617 61.3774 10.504 61.4067 10.35L62.0337 6.797H61.2637L61.4067 5.972H62.1877L62.4517 4.454H63.4637L63.1997 5.972H64.7617L64.6187 6.797H63.0457L62.4187 10.35ZM68.0409 11.197C69.1043 10.4417 69.9439 9.82933 70.5599 9.36C71.1759 8.88333 71.7076 8.38833 72.1549 7.875C72.6096 7.35433 72.8809 6.84833 72.9689 6.357C72.9909 6.225 73.0019 6.093 73.0019 5.961C73.0019 5.61633 72.9029 5.345 72.7049 5.147C72.5069 4.949 72.1916 4.85 71.7589 4.85C71.2676 4.85 70.8569 5.00767 70.5269 5.323C70.1969 5.631 69.9733 6.04533 69.8559 6.566H68.8879C69.0639 5.74467 69.4269 5.11033 69.9769 4.663C70.5269 4.21567 71.1723 3.992 71.9129 3.992C72.5729 3.992 73.0863 4.15333 73.4529 4.476C73.8269 4.79867 74.0139 5.246 74.0139 5.818C74.0139 5.994 73.9993 6.159 73.9699 6.313C73.8673 6.89967 73.5813 7.479 73.1119 8.051C72.6499 8.623 72.1476 9.12533 71.6049 9.558C71.0623 9.99067 70.3839 10.4967 69.5699 11.076H73.3539L73.2109 11.912H67.9089L68.0409 11.197ZM75.0611 8.007C75.2811 6.76033 75.6551 5.785 76.1831 5.081C76.7184 4.377 77.4994 4.025 78.5261 4.025C79.3181 4.025 79.8828 4.24133 80.2201 4.674C80.5648 5.09933 80.7371 5.697 80.7371 6.467C80.7371 6.92167 80.6858 7.435 80.5831 8.007C80.3631 9.261 79.9854 10.24 79.4501 10.944C78.9221 11.648 78.1448 12 77.1181 12C76.3261 12 75.7578 11.7873 75.4131 11.362C75.0758 10.9293 74.9071 10.3243 74.9071 9.547C74.9071 9.09233 74.9584 8.579 75.0611 8.007ZM79.6041 8.007C79.7068 7.40567 79.7581 6.92533 79.7581 6.566C79.7581 6.04533 79.6518 5.64567 79.4391 5.367C79.2338 5.081 78.8781 4.938 78.3721 4.938C77.8734 4.938 77.4701 5.07367 77.1621 5.345C76.8541 5.609 76.6158 5.961 76.4471 6.401C76.2858 6.841 76.1501 7.37633 76.0401 8.007C75.9374 8.60833 75.8861 9.09233 75.8861 9.459C75.8861 9.97967 75.9888 10.383 76.1941 10.669C76.4068 10.9477 76.7661 11.087 77.2721 11.087C77.7708 11.087 78.1741 10.955 78.4821 10.691C78.7901 10.4197 79.0248 10.064 79.1861 9.624C79.3474 9.184 79.4868 8.645 79.6041 8.007ZM81.2753 11.197C82.3387 10.4417 83.1783 9.82933 83.7943 9.36C84.4103 8.88333 84.942 8.38833 85.3893 7.875C85.844 7.35433 86.1153 6.84833 86.2033 6.357C86.2253 6.225 86.2363 6.093 86.2363 5.961C86.2363 5.61633 86.1373 5.345 85.9393 5.147C85.7413 4.949 85.426 4.85 84.9933 4.85C84.502 4.85 84.0913 5.00767 83.7613 5.323C83.4313 5.631 83.2077 6.04533 83.0903 6.566H82.1223C82.2983 5.74467 82.6613 5.11033 83.2113 4.663C83.7613 4.21567 84.4067 3.992 85.1473 3.992C85.8073 3.992 86.3207 4.15333 86.6873 4.476C87.0613 4.79867 87.2483 5.246 87.2483 5.818C87.2483 5.994 87.2337 6.159 87.2043 6.313C87.1017 6.89967 86.8157 7.479 86.3463 8.051C85.8843 8.623 85.382 9.12533 84.8393 9.558C84.2967 9.99067 83.6183 10.4967 82.8043 11.076H86.5883L86.4453 11.912H81.1433L81.2753 11.197ZM88.6035 6.049C88.7721 5.37433 89.1278 4.84633 89.6705 4.465C90.2131 4.08367 90.8585 3.893 91.6065 3.893C92.2738 3.893 92.7835 4.047 93.1355 4.355C93.4875 4.65567 93.6635 5.05533 93.6635 5.554C93.6635 5.67867 93.6525 5.807 93.6305 5.939C93.5498 6.39367 93.3518 6.786 93.0365 7.116C92.7211 7.446 92.3435 7.65867 91.9035 7.754V7.809C92.2921 7.90433 92.5928 8.08767 92.8055 8.359C93.0255 8.623 93.1355 8.96767 93.1355 9.393C93.1355 9.481 93.1208 9.635 93.0915 9.855C92.9741 10.5003 92.6588 11.0283 92.1455 11.439C91.6395 11.8497 90.9868 12.055 90.1875 12.055C89.4688 12.055 88.8968 11.879 88.4715 11.527C88.0461 11.175 87.8335 10.6727 87.8335 10.02C87.8335 9.888 87.8371 9.78533 87.8445 9.712H88.8125C88.7831 10.152 88.8968 10.5113 89.1535 10.79C89.4175 11.0687 89.8061 11.208 90.3195 11.208C90.8255 11.208 91.2398 11.076 91.5625 10.812C91.8851 10.5407 92.0831 10.1923 92.1565 9.767C92.1785 9.64233 92.1895 9.53233 92.1895 9.437C92.1895 9.01167 92.0245 8.70367 91.6945 8.513C91.3645 8.315 90.8695 8.216 90.2095 8.216H89.9455L90.0995 7.38H90.3745C91.0491 7.37267 91.5771 7.26267 91.9585 7.05C92.3398 6.83 92.5708 6.49267 92.6515 6.038C92.6661 5.92067 92.6735 5.83267 92.6735 5.774C92.6735 5.45867 92.5671 5.20933 92.3545 5.026C92.1418 4.84267 91.8301 4.751 91.4195 4.751C90.9648 4.751 90.5761 4.86833 90.2535 5.103C89.9308 5.33767 89.7071 5.653 89.5825 6.049H88.6035ZM103.571 4.333L103.428 5.114H101.338L100.128 12H99.1274L100.337 5.114H98.2474L98.3904 4.333H103.571ZM106.102 12.099C105.596 12.099 105.148 11.9963 104.76 11.791C104.378 11.5783 104.081 11.285 103.869 10.911C103.656 10.5297 103.55 10.0897 103.55 9.591C103.55 8.909 103.707 8.28567 104.023 7.721C104.338 7.149 104.771 6.698 105.321 6.368C105.878 6.038 106.498 5.873 107.18 5.873C107.686 5.873 108.133 5.97933 108.522 6.192C108.918 6.39733 109.222 6.69067 109.435 7.072C109.655 7.446 109.765 7.886 109.765 8.392C109.765 9.074 109.603 9.69733 109.281 10.262C108.958 10.8267 108.518 11.274 107.961 11.604C107.403 11.934 106.784 12.099 106.102 12.099ZM106.223 11.252C106.699 11.252 107.128 11.1237 107.51 10.867C107.891 10.603 108.188 10.2583 108.401 9.833C108.621 9.40033 108.731 8.93833 108.731 8.447C108.731 7.88967 108.569 7.46433 108.247 7.171C107.924 6.87033 107.521 6.72 107.037 6.72C106.56 6.72 106.135 6.852 105.761 7.116C105.387 7.37267 105.097 7.71733 104.892 8.15C104.686 8.58267 104.584 9.04833 104.584 9.547C104.584 10.0897 104.738 10.5113 105.046 10.812C105.354 11.1053 105.746 11.252 106.223 11.252ZM110.641 8.964C110.751 8.348 110.971 7.809 111.301 7.347C111.638 6.87767 112.049 6.51467 112.533 6.258C113.017 6.00133 113.53 5.873 114.073 5.873C114.535 5.873 114.949 5.983 115.316 6.203C115.682 6.41567 115.943 6.698 116.097 7.05L116.658 3.86H117.67L116.229 12H115.217L115.426 10.867C115.169 11.2263 114.824 11.5233 114.392 11.758C113.959 11.9853 113.482 12.099 112.962 12.099C112.492 12.099 112.078 12 111.719 11.802C111.359 11.5967 111.077 11.307 110.872 10.933C110.674 10.559 110.575 10.1263 110.575 9.635C110.575 9.415 110.597 9.19133 110.641 8.964ZM115.756 8.975C115.785 8.821 115.8 8.656 115.8 8.48C115.8 7.94467 115.638 7.523 115.316 7.215C115 6.89967 114.597 6.742 114.106 6.742C113.732 6.742 113.372 6.83 113.028 7.006C112.69 7.182 112.401 7.43867 112.159 7.776C111.917 8.11333 111.755 8.50933 111.675 8.964C111.645 9.118 111.631 9.28667 111.631 9.47C111.631 10.0127 111.788 10.4417 112.104 10.757C112.419 11.065 112.822 11.219 113.314 11.219C113.688 11.219 114.043 11.131 114.381 10.955C114.725 10.7717 115.019 10.5113 115.261 10.174C115.51 9.82933 115.675 9.42967 115.756 8.975ZM120.571 12.099C120.065 12.099 119.618 11.9963 119.229 11.791C118.848 11.5783 118.551 11.285 118.338 10.911C118.126 10.5297 118.019 10.0897 118.019 9.591C118.019 8.909 118.177 8.28567 118.492 7.721C118.808 7.149 119.24 6.698 119.79 6.368C120.348 6.038 120.967 5.873 121.649 5.873C122.155 5.873 122.603 5.97933 122.991 6.192C123.387 6.39733 123.692 6.69067 123.904 7.072C124.124 7.446 124.234 7.886 124.234 8.392C124.234 9.074 124.073 9.69733 123.75 10.262C123.428 10.8267 122.988 11.274 122.43 11.604C121.873 11.934 121.253 12.099 120.571 12.099ZM120.692 11.252C121.169 11.252 121.598 11.1237 121.979 10.867C122.361 10.603 122.658 10.2583 122.87 9.833C123.09 9.40033 123.2 8.93833 123.2 8.447C123.2 7.88967 123.039 7.46433 122.716 7.171C122.394 6.87033 121.99 6.72 121.506 6.72C121.03 6.72 120.604 6.852 120.23 7.116C119.856 7.37267 119.567 7.71733 119.361 8.15C119.156 8.58267 119.053 9.04833 119.053 9.547C119.053 10.0897 119.207 10.5113 119.515 10.812C119.823 11.1053 120.216 11.252 120.692 11.252ZM127.079 12.099C126.449 12.099 125.932 11.9487 125.528 11.648C125.125 11.3473 124.923 10.944 124.923 10.438C124.923 10.3427 124.927 10.273 124.934 10.229H125.913C125.884 10.5443 125.976 10.801 126.188 10.999C126.408 11.197 126.724 11.296 127.134 11.296C127.545 11.296 127.875 11.219 128.124 11.065C128.381 10.9037 128.509 10.68 128.509 10.394C128.509 10.152 128.407 9.96133 128.201 9.822C127.996 9.68267 127.681 9.53233 127.255 9.371C126.881 9.23167 126.573 9.09967 126.331 8.975C126.089 8.85033 125.884 8.678 125.715 8.458C125.547 8.23067 125.462 7.94467 125.462 7.6C125.462 7.26267 125.558 6.962 125.748 6.698C125.946 6.434 126.218 6.23233 126.562 6.093C126.914 5.94633 127.314 5.873 127.761 5.873C128.377 5.873 128.883 6.027 129.279 6.335C129.675 6.643 129.873 7.04633 129.873 7.545C129.873 7.64033 129.87 7.71367 129.862 7.765H128.905L128.916 7.633C128.916 7.33967 128.803 7.10867 128.575 6.94C128.355 6.764 128.062 6.676 127.695 6.676C127.336 6.676 127.039 6.75667 126.804 6.918C126.577 7.07933 126.463 7.29567 126.463 7.567C126.463 7.82367 126.57 8.02533 126.782 8.172C126.995 8.31867 127.325 8.48 127.772 8.656C128.146 8.80267 128.447 8.93833 128.674 9.063C128.902 9.18033 129.096 9.34533 129.257 9.558C129.419 9.77067 129.499 10.0383 129.499 10.361C129.499 10.713 129.393 11.021 129.18 11.285C128.975 11.549 128.689 11.7507 128.322 11.89C127.956 12.0293 127.541 12.099 127.079 12.099ZM136.422 3.86L134.981 12H133.98L135.421 3.86H136.422ZM139.338 12.099C138.832 12.099 138.385 11.9963 137.996 11.791C137.615 11.5783 137.318 11.285 137.105 10.911C136.892 10.5297 136.786 10.0897 136.786 9.591C136.786 8.909 136.944 8.28567 137.259 7.721C137.574 7.149 138.007 6.698 138.557 6.368C139.114 6.038 139.734 5.873 140.416 5.873C140.922 5.873 141.369 5.97933 141.758 6.192C142.154 6.39733 142.458 6.69067 142.671 7.072C142.891 7.446 143.001 7.886 143.001 8.392C143.001 9.074 142.84 9.69733 142.517 10.262C142.194 10.8267 141.754 11.274 141.197 11.604C140.64 11.934 140.02 12.099 139.338 12.099ZM139.459 11.252C139.936 11.252 140.365 11.1237 140.746 10.867C141.127 10.603 141.424 10.2583 141.637 9.833C141.857 9.40033 141.967 8.93833 141.967 8.447C141.967 7.88967 141.806 7.46433 141.483 7.171C141.16 6.87033 140.757 6.72 140.273 6.72C139.796 6.72 139.371 6.852 138.997 7.116C138.623 7.37267 138.333 7.71733 138.128 8.15C137.923 8.58267 137.82 9.04833 137.82 9.547C137.82 10.0897 137.974 10.5113 138.282 10.812C138.59 11.1053 138.982 11.252 139.459 11.252ZM145.846 12.099C145.215 12.099 144.698 11.9487 144.295 11.648C143.892 11.3473 143.69 10.944 143.69 10.438C143.69 10.3427 143.694 10.273 143.701 10.229H144.68C144.651 10.5443 144.742 10.801 144.955 10.999C145.175 11.197 145.49 11.296 145.901 11.296C146.312 11.296 146.642 11.219 146.891 11.065C147.148 10.9037 147.276 10.68 147.276 10.394C147.276 10.152 147.173 9.96133 146.968 9.822C146.763 9.68267 146.447 9.53233 146.022 9.371C145.648 9.23167 145.34 9.09967 145.098 8.975C144.856 8.85033 144.651 8.678 144.482 8.458C144.313 8.23067 144.229 7.94467 144.229 7.6C144.229 7.26267 144.324 6.962 144.515 6.698C144.713 6.434 144.984 6.23233 145.329 6.093C145.681 5.94633 146.081 5.873 146.528 5.873C147.144 5.873 147.65 6.027 148.046 6.335C148.442 6.643 148.64 7.04633 148.64 7.545C148.64 7.64033 148.636 7.71367 148.629 7.765H147.672L147.683 7.633C147.683 7.33967 147.569 7.10867 147.342 6.94C147.122 6.764 146.829 6.676 146.462 6.676C146.103 6.676 145.806 6.75667 145.571 6.918C145.344 7.07933 145.23 7.29567 145.23 7.567C145.23 7.82367 145.336 8.02533 145.549 8.172C145.762 8.31867 146.092 8.48 146.539 8.656C146.913 8.80267 147.214 8.93833 147.441 9.063C147.668 9.18033 147.863 9.34533 148.024 9.558C148.185 9.77067 148.266 10.0383 148.266 10.361C148.266 10.713 148.16 11.021 147.947 11.285C147.742 11.549 147.456 11.7507 147.089 11.89C146.722 12.0293 146.308 12.099 145.846 12.099ZM152.9 8.964C153.01 8.348 153.23 7.809 153.56 7.347C153.898 6.87767 154.308 6.51467 154.792 6.258C155.276 6.00133 155.79 5.873 156.332 5.873C156.794 5.873 157.209 5.983 157.575 6.203C157.942 6.41567 158.202 6.698 158.356 7.05L158.917 3.86H159.929L158.488 12H157.476L157.685 10.867C157.429 11.2263 157.084 11.5233 156.651 11.758C156.219 11.9853 155.742 12.099 155.221 12.099C154.752 12.099 154.338 12 153.978 11.802C153.619 11.5967 153.337 11.307 153.131 10.933C152.933 10.559 152.834 10.1263 152.834 9.635C152.834 9.415 152.856 9.19133 152.9 8.964ZM158.015 8.975C158.045 8.821 158.059 8.656 158.059 8.48C158.059 7.94467 157.898 7.523 157.575 7.215C157.26 6.89967 156.857 6.742 156.365 6.742C155.991 6.742 155.632 6.83 155.287 7.006C154.95 7.182 154.66 7.43867 154.418 7.776C154.176 8.11333 154.015 8.50933 153.934 8.964C153.905 9.118 153.89 9.28667 153.89 9.47C153.89 10.0127 154.048 10.4417 154.363 10.757C154.679 11.065 155.082 11.219 155.573 11.219C155.947 11.219 156.303 11.131 156.64 10.955C156.985 10.7717 157.278 10.5113 157.52 10.174C157.77 9.82933 157.935 9.42967 158.015 8.975ZM163.865 5.873C164.371 5.873 164.807 5.972 165.174 6.17C165.548 6.36067 165.83 6.632 166.021 6.984C166.219 7.32867 166.318 7.72467 166.318 8.172C166.318 8.326 166.3 8.513 166.263 8.733C166.234 8.92367 166.186 9.12167 166.12 9.327H161.302C161.287 9.47367 161.28 9.58 161.28 9.646C161.28 10.152 161.43 10.548 161.731 10.834C162.039 11.1127 162.439 11.252 162.93 11.252C163.363 11.252 163.74 11.153 164.063 10.955C164.393 10.7497 164.642 10.4783 164.811 10.141H165.889C165.625 10.7203 165.218 11.1933 164.668 11.56C164.125 11.9193 163.495 12.099 162.776 12.099C162.021 12.099 161.412 11.8827 160.95 11.45C160.495 11.01 160.268 10.4123 160.268 9.657C160.268 9.44433 160.29 9.217 160.334 8.975C160.444 8.35167 160.668 7.80533 161.005 7.336C161.342 6.86667 161.757 6.50733 162.248 6.258C162.747 6.00133 163.286 5.873 163.865 5.873ZM165.251 8.601C165.273 8.45433 165.284 8.31867 165.284 8.194C165.284 7.72467 165.134 7.36167 164.833 7.105C164.54 6.84833 164.155 6.72 163.678 6.72C163.165 6.72 162.699 6.88867 162.281 7.226C161.863 7.556 161.581 8.01433 161.434 8.601H165.251ZM168.871 7.116C169.113 6.72 169.418 6.412 169.784 6.192C170.151 5.972 170.569 5.862 171.038 5.862L170.851 6.896H170.587C170.067 6.896 169.63 7.03533 169.278 7.314C168.934 7.59267 168.703 8.062 168.585 8.722L168.002 12H167.001L168.068 5.972H169.069L168.871 7.116ZM174.79 5.873C175.296 5.873 175.732 5.972 176.099 6.17C176.473 6.36067 176.755 6.632 176.946 6.984C177.144 7.32867 177.243 7.72467 177.243 8.172C177.243 8.326 177.225 8.513 177.188 8.733C177.159 8.92367 177.111 9.12167 177.045 9.327H172.227C172.212 9.47367 172.205 9.58 172.205 9.646C172.205 10.152 172.355 10.548 172.656 10.834C172.964 11.1127 173.364 11.252 173.855 11.252C174.288 11.252 174.665 11.153 174.988 10.955C175.318 10.7497 175.567 10.4783 175.736 10.141H176.814C176.55 10.7203 176.143 11.1933 175.593 11.56C175.05 11.9193 174.42 12.099 173.701 12.099C172.946 12.099 172.337 11.8827 171.875 11.45C171.42 11.01 171.193 10.4123 171.193 9.657C171.193 9.44433 171.215 9.217 171.259 8.975C171.369 8.35167 171.593 7.80533 171.93 7.336C172.267 6.86667 172.682 6.50733 173.173 6.258C173.672 6.00133 174.211 5.873 174.79 5.873ZM176.176 8.601C176.198 8.45433 176.209 8.31867 176.209 8.194C176.209 7.72467 176.059 7.36167 175.758 7.105C175.465 6.84833 175.08 6.72 174.603 6.72C174.09 6.72 173.624 6.88867 173.206 7.226C172.788 7.556 172.506 8.01433 172.359 8.601H176.176ZM178.08 8.975C178.19 8.35167 178.41 7.809 178.74 7.347C179.077 6.87767 179.492 6.51467 179.983 6.258C180.474 6.00133 181.006 5.873 181.578 5.873C182.319 5.873 182.894 6.05267 183.305 6.412C183.723 6.77133 183.954 7.27 183.998 7.908H182.92C182.883 7.54133 182.733 7.25167 182.469 7.039C182.212 6.82633 181.864 6.72 181.424 6.72C180.852 6.72 180.353 6.918 179.928 7.314C179.51 7.70267 179.239 8.25633 179.114 8.975C179.077 9.217 179.059 9.41867 179.059 9.58C179.059 10.1153 179.202 10.5297 179.488 10.823C179.774 11.109 180.155 11.252 180.632 11.252C181.072 11.252 181.453 11.1493 181.776 10.944C182.106 10.7387 182.359 10.4453 182.535 10.064H183.613C183.349 10.68 182.942 11.175 182.392 11.549C181.842 11.9157 181.204 12.099 180.478 12.099C179.723 12.099 179.121 11.8827 178.674 11.45C178.234 11.0173 178.014 10.427 178.014 9.679C178.014 9.45167 178.036 9.217 178.08 8.975ZM188.689 5.862C189.29 5.862 189.774 6.03067 190.141 6.368C190.507 6.698 190.691 7.17833 190.691 7.809C190.691 8.04367 190.672 8.25633 190.636 8.447L190.009 12H189.019L189.624 8.59C189.653 8.436 189.668 8.27467 189.668 8.106C189.668 7.65867 189.543 7.31767 189.294 7.083C189.052 6.84833 188.711 6.731 188.271 6.731C187.743 6.731 187.292 6.896 186.918 7.226C186.551 7.556 186.313 8.03633 186.203 8.667V8.645L185.609 12H184.608L186.049 3.86H187.05L186.522 6.841C186.771 6.533 187.086 6.29467 187.468 6.126C187.856 5.95 188.263 5.862 188.689 5.862ZM194.295 12.099C193.789 12.099 193.342 11.9963 192.953 11.791C192.572 11.5783 192.275 11.285 192.062 10.911C191.849 10.5297 191.743 10.0897 191.743 9.591C191.743 8.909 191.901 8.28567 192.216 7.721C192.531 7.149 192.964 6.698 193.514 6.368C194.071 6.038 194.691 5.873 195.373 5.873C195.879 5.873 196.326 5.97933 196.715 6.192C197.111 6.39733 197.415 6.69067 197.628 7.072C197.848 7.446 197.958 7.886 197.958 8.392C197.958 9.074 197.797 9.69733 197.474 10.262C197.151 10.8267 196.711 11.274 196.154 11.604C195.597 11.934 194.977 12.099 194.295 12.099ZM194.416 11.252C194.893 11.252 195.322 11.1237 195.703 10.867C196.084 10.603 196.381 10.2583 196.594 9.833C196.814 9.40033 196.924 8.93833 196.924 8.447C196.924 7.88967 196.763 7.46433 196.44 7.171C196.117 6.87033 195.714 6.72 195.23 6.72C194.753 6.72 194.328 6.852 193.954 7.116C193.58 7.37267 193.29 7.71733 193.085 8.15C192.88 8.58267 192.777 9.04833 192.777 9.547C192.777 10.0897 192.931 10.5113 193.239 10.812C193.547 11.1053 193.939 11.252 194.416 11.252ZM200.803 12.099C200.172 12.099 199.655 11.9487 199.252 11.648C198.849 11.3473 198.647 10.944 198.647 10.438C198.647 10.3427 198.651 10.273 198.658 10.229H199.637C199.608 10.5443 199.699 10.801 199.912 10.999C200.132 11.197 200.447 11.296 200.858 11.296C201.269 11.296 201.599 11.219 201.848 11.065C202.105 10.9037 202.233 10.68 202.233 10.394C202.233 10.152 202.13 9.96133 201.925 9.822C201.72 9.68267 201.404 9.53233 200.979 9.371C200.605 9.23167 200.297 9.09967 200.055 8.975C199.813 8.85033 199.608 8.678 199.439 8.458C199.27 8.23067 199.186 7.94467 199.186 7.6C199.186 7.26267 199.281 6.962 199.472 6.698C199.67 6.434 199.941 6.23233 200.286 6.093C200.638 5.94633 201.038 5.873 201.485 5.873C202.101 5.873 202.607 6.027 203.003 6.335C203.399 6.643 203.597 7.04633 203.597 7.545C203.597 7.64033 203.593 7.71367 203.586 7.765H202.629L202.64 7.633C202.64 7.33967 202.526 7.10867 202.299 6.94C202.079 6.764 201.786 6.676 201.419 6.676C201.06 6.676 200.763 6.75667 200.528 6.918C200.301 7.07933 200.187 7.29567 200.187 7.567C200.187 7.82367 200.293 8.02533 200.506 8.172C200.719 8.31867 201.049 8.48 201.496 8.656C201.87 8.80267 202.171 8.93833 202.398 9.063C202.625 9.18033 202.82 9.34533 202.981 9.558C203.142 9.77067 203.223 10.0383 203.223 10.361C203.223 10.713 203.117 11.021 202.904 11.285C202.699 11.549 202.413 11.7507 202.046 11.89C201.679 12.0293 201.265 12.099 200.803 12.099ZM209.573 7.116C209.815 6.72 210.12 6.412 210.486 6.192C210.853 5.972 211.271 5.862 211.74 5.862L211.553 6.896H211.289C210.769 6.896 210.332 7.03533 209.98 7.314C209.636 7.59267 209.405 8.062 209.287 8.722L208.704 12H207.703L208.77 5.972H209.771L209.573 7.116ZM215.492 5.873C215.998 5.873 216.434 5.972 216.801 6.17C217.175 6.36067 217.457 6.632 217.648 6.984C217.846 7.32867 217.945 7.72467 217.945 8.172C217.945 8.326 217.927 8.513 217.89 8.733C217.861 8.92367 217.813 9.12167 217.747 9.327H212.929C212.914 9.47367 212.907 9.58 212.907 9.646C212.907 10.152 213.057 10.548 213.358 10.834C213.666 11.1127 214.066 11.252 214.557 11.252C214.99 11.252 215.367 11.153 215.69 10.955C216.02 10.7497 216.269 10.4783 216.438 10.141H217.516C217.252 10.7203 216.845 11.1933 216.295 11.56C215.752 11.9193 215.122 12.099 214.403 12.099C213.648 12.099 213.039 11.8827 212.577 11.45C212.122 11.01 211.895 10.4123 211.895 9.657C211.895 9.44433 211.917 9.217 211.961 8.975C212.071 8.35167 212.295 7.80533 212.632 7.336C212.969 6.86667 213.384 6.50733 213.875 6.258C214.374 6.00133 214.913 5.873 215.492 5.873ZM216.878 8.601C216.9 8.45433 216.911 8.31867 216.911 8.194C216.911 7.72467 216.761 7.36167 216.46 7.105C216.167 6.84833 215.782 6.72 215.305 6.72C214.792 6.72 214.326 6.88867 213.908 7.226C213.49 7.556 213.208 8.01433 213.061 8.601H216.878ZM220.751 12.099C220.121 12.099 219.604 11.9487 219.2 11.648C218.797 11.3473 218.595 10.944 218.595 10.438C218.595 10.3427 218.599 10.273 218.606 10.229H219.585C219.556 10.5443 219.648 10.801 219.86 10.999C220.08 11.197 220.396 11.296 220.806 11.296C221.217 11.296 221.547 11.219 221.796 11.065C222.053 10.9037 222.181 10.68 222.181 10.394C222.181 10.152 222.079 9.96133 221.873 9.822C221.668 9.68267 221.353 9.53233 220.927 9.371C220.553 9.23167 220.245 9.09967 220.003 8.975C219.761 8.85033 219.556 8.678 219.387 8.458C219.219 8.23067 219.134 7.94467 219.134 7.6C219.134 7.26267 219.23 6.962 219.42 6.698C219.618 6.434 219.89 6.23233 220.234 6.093C220.586 5.94633 220.986 5.873 221.433 5.873C222.049 5.873 222.555 6.027 222.951 6.335C223.347 6.643 223.545 7.04633 223.545 7.545C223.545 7.64033 223.542 7.71367 223.534 7.765H222.577L222.588 7.633C222.588 7.33967 222.475 7.10867 222.247 6.94C222.027 6.764 221.734 6.676 221.367 6.676C221.008 6.676 220.711 6.75667 220.476 6.918C220.249 7.07933 220.135 7.29567 220.135 7.567C220.135 7.82367 220.242 8.02533 220.454 8.172C220.667 8.31867 220.997 8.48 221.444 8.656C221.818 8.80267 222.119 8.93833 222.346 9.063C222.574 9.18033 222.768 9.34533 222.929 9.558C223.091 9.77067 223.171 10.0383 223.171 10.361C223.171 10.713 223.065 11.021 222.852 11.285C222.647 11.549 222.361 11.7507 221.994 11.89C221.628 12.0293 221.213 12.099 220.751 12.099ZM228.06 5.873C228.566 5.873 229.003 5.972 229.369 6.17C229.743 6.36067 230.026 6.632 230.216 6.984C230.414 7.32867 230.513 7.72467 230.513 8.172C230.513 8.326 230.495 8.513 230.458 8.733C230.429 8.92367 230.381 9.12167 230.315 9.327H225.497C225.483 9.47367 225.475 9.58 225.475 9.646C225.475 10.152 225.626 10.548 225.926 10.834C226.234 11.1127 226.634 11.252 227.125 11.252C227.558 11.252 227.936 11.153 228.258 10.955C228.588 10.7497 228.838 10.4783 229.006 10.141H230.084C229.82 10.7203 229.413 11.1933 228.863 11.56C228.321 11.9193 227.69 12.099 226.971 12.099C226.216 12.099 225.607 11.8827 225.145 11.45C224.691 11.01 224.463 10.4123 224.463 9.657C224.463 9.44433 224.485 9.217 224.529 8.975C224.639 8.35167 224.863 7.80533 225.2 7.336C225.538 6.86667 225.952 6.50733 226.443 6.258C226.942 6.00133 227.481 5.873 228.06 5.873ZM229.446 8.601C229.468 8.45433 229.479 8.31867 229.479 8.194C229.479 7.72467 229.329 7.36167 229.028 7.105C228.735 6.84833 228.35 6.72 227.873 6.72C227.36 6.72 226.894 6.88867 226.476 7.226C226.058 7.556 225.776 8.01433 225.629 8.601H229.446ZM233.067 7.116C233.309 6.72 233.613 6.412 233.98 6.192C234.346 5.972 234.764 5.862 235.234 5.862L235.047 6.896H234.783C234.262 6.896 233.826 7.03533 233.474 7.314C233.129 7.59267 232.898 8.062 232.781 8.722L232.198 12H231.197L232.264 5.972H233.265L233.067 7.116ZM237.709 11.054L240.481 5.972H241.559L238.127 12H236.95L235.652 5.972H236.73L237.709 11.054ZM241.62 8.964C241.73 8.348 241.95 7.809 242.28 7.347C242.618 6.87767 243.025 6.51467 243.501 6.258C243.985 6.00133 244.499 5.873 245.041 5.873C245.569 5.873 246.006 5.98667 246.35 6.214C246.695 6.44133 246.933 6.72733 247.065 7.072L247.263 5.972H248.275L247.208 12H246.196L246.405 10.878C246.141 11.23 245.793 11.5233 245.36 11.758C244.928 11.9853 244.451 12.099 243.93 12.099C243.461 12.099 243.047 12 242.687 11.802C242.328 11.5967 242.049 11.307 241.851 10.933C241.653 10.559 241.554 10.1263 241.554 9.635C241.554 9.415 241.576 9.19133 241.62 8.964ZM246.735 8.975C246.765 8.821 246.779 8.656 246.779 8.48C246.779 7.94467 246.618 7.523 246.295 7.215C245.98 6.89967 245.577 6.742 245.085 6.742C244.711 6.742 244.352 6.83 244.007 7.006C243.67 7.182 243.38 7.43867 243.138 7.776C242.896 8.11333 242.735 8.50933 242.654 8.964C242.625 9.118 242.61 9.28667 242.61 9.47C242.61 10.0127 242.768 10.4417 243.083 10.757C243.399 11.065 243.802 11.219 244.293 11.219C244.667 11.219 245.023 11.131 245.36 10.955C245.705 10.7717 245.998 10.5113 246.24 10.174C246.49 9.82933 246.655 9.42967 246.735 8.975ZM249.054 8.964C249.164 8.348 249.384 7.809 249.714 7.347C250.051 6.87767 250.462 6.51467 250.946 6.258C251.43 6.00133 251.943 5.873 252.486 5.873C252.948 5.873 253.362 5.983 253.729 6.203C254.095 6.41567 254.356 6.698 254.51 7.05L255.071 3.86H256.083L254.642 12H253.63L253.839 10.867C253.582 11.2263 253.237 11.5233 252.805 11.758C252.372 11.9853 251.895 12.099 251.375 12.099C250.905 12.099 250.491 12 250.132 11.802C249.772 11.5967 249.49 11.307 249.285 10.933C249.087 10.559 248.988 10.1263 248.988 9.635C248.988 9.415 249.01 9.19133 249.054 8.964ZM254.169 8.975C254.198 8.821 254.213 8.656 254.213 8.48C254.213 7.94467 254.051 7.523 253.729 7.215C253.413 6.89967 253.01 6.742 252.519 6.742C252.145 6.742 251.785 6.83 251.441 7.006C251.103 7.182 250.814 7.43867 250.572 7.776C250.33 8.11333 250.168 8.50933 250.088 8.964C250.058 9.118 250.044 9.28667 250.044 9.47C250.044 10.0127 250.201 10.4417 250.517 10.757C250.832 11.065 251.235 11.219 251.727 11.219C252.101 11.219 252.456 11.131 252.794 10.955C253.138 10.7717 253.432 10.5113 253.674 10.174C253.923 9.82933 254.088 9.42967 254.169 8.975ZM258.984 12.099C258.478 12.099 258.031 11.9963 257.642 11.791C257.261 11.5783 256.964 11.285 256.751 10.911C256.539 10.5297 256.432 10.0897 256.432 9.591C256.432 8.909 256.59 8.28567 256.905 7.721C257.221 7.149 257.653 6.698 258.203 6.368C258.761 6.038 259.38 5.873 260.062 5.873C260.568 5.873 261.016 5.97933 261.404 6.192C261.8 6.39733 262.105 6.69067 262.317 7.072C262.537 7.446 262.647 7.886 262.647 8.392C262.647 9.074 262.486 9.69733 262.163 10.262C261.841 10.8267 261.401 11.274 260.843 11.604C260.286 11.934 259.666 12.099 258.984 12.099ZM259.105 11.252C259.582 11.252 260.011 11.1237 260.392 10.867C260.774 10.603 261.071 10.2583 261.283 9.833C261.503 9.40033 261.613 8.93833 261.613 8.447C261.613 7.88967 261.452 7.46433 261.129 7.171C260.807 6.87033 260.403 6.72 259.919 6.72C259.443 6.72 259.017 6.852 258.643 7.116C258.269 7.37267 257.98 7.71733 257.774 8.15C257.569 8.58267 257.466 9.04833 257.466 9.547C257.466 10.0897 257.62 10.5113 257.928 10.812C258.236 11.1053 258.629 11.252 259.105 11.252ZM265.492 12.099C264.862 12.099 264.345 11.9487 263.941 11.648C263.538 11.3473 263.336 10.944 263.336 10.438C263.336 10.3427 263.34 10.273 263.347 10.229H264.326C264.297 10.5443 264.389 10.801 264.601 10.999C264.821 11.197 265.137 11.296 265.547 11.296C265.958 11.296 266.288 11.219 266.537 11.065C266.794 10.9037 266.922 10.68 266.922 10.394C266.922 10.152 266.82 9.96133 266.614 9.822C266.409 9.68267 266.094 9.53233 265.668 9.371C265.294 9.23167 264.986 9.09967 264.744 8.975C264.502 8.85033 264.297 8.678 264.128 8.458C263.96 8.23067 263.875 7.94467 263.875 7.6C263.875 7.26267 263.971 6.962 264.161 6.698C264.359 6.434 264.631 6.23233 264.975 6.093C265.327 5.94633 265.727 5.873 266.174 5.873C266.79 5.873 267.296 6.027 267.692 6.335C268.088 6.643 268.286 7.04633 268.286 7.545C268.286 7.64033 268.283 7.71367 268.275 7.765H267.318L267.329 7.633C267.329 7.33967 267.216 7.10867 266.988 6.94C266.768 6.764 266.475 6.676 266.108 6.676C265.749 6.676 265.452 6.75667 265.217 6.918C264.99 7.07933 264.876 7.29567 264.876 7.567C264.876 7.82367 264.983 8.02533 265.195 8.172C265.408 8.31867 265.738 8.48 266.185 8.656C266.559 8.80267 266.86 8.93833 267.087 9.063C267.315 9.18033 267.509 9.34533 267.67 9.558C267.832 9.77067 267.912 10.0383 267.912 10.361C267.912 10.713 267.806 11.021 267.593 11.285C267.388 11.549 267.102 11.7507 266.735 11.89C266.369 12.0293 265.954 12.099 265.492 12.099Z" fill="white"/>
<circle cx="4" cy="8.66669" r="3.77778" stroke="white" stroke-width="0.444444"/>
<path d="M1.93093 8.816C1.93093 8.36267 2.0216 7.968 2.20293 7.632C2.38426 7.29067 2.63493 7.02933 2.95493 6.848C3.27493 6.66133 3.64026 6.568 4.05093 6.568C4.5896 6.568 5.03226 6.70133 5.37893 6.968C5.73093 7.23467 5.9576 7.59733 6.05893 8.056H5.45893C5.38426 7.74133 5.2216 7.496 4.97093 7.32C4.7256 7.13867 4.41893 7.048 4.05093 7.048C3.7576 7.048 3.4936 7.11467 3.25893 7.248C3.02426 7.38133 2.8376 7.58133 2.69893 7.848C2.5656 8.10933 2.49893 8.432 2.49893 8.816C2.49893 9.2 2.5656 9.52533 2.69893 9.792C2.8376 10.0587 3.02426 10.2587 3.25893 10.392C3.4936 10.5253 3.7576 10.592 4.05093 10.592C4.41893 10.592 4.7256 10.504 4.97093 10.328C5.2216 10.1467 5.38426 9.896 5.45893 9.576H6.05893C5.9576 10.024 5.73093 10.384 5.37893 10.656C5.02693 10.928 4.58426 11.064 4.05093 11.064C3.64026 11.064 3.27493 10.9733 2.95493 10.792C2.63493 10.6053 2.38426 10.344 2.20293 10.008C2.0216 9.66667 1.93093 9.26933 1.93093 8.816Z" fill="white"/>
</svg>
