<svg width="107" height="54" viewBox="0 0 107 54" fill="none" xmlns="http://www.w3.org/2000/svg">
<path d="M1.16456 42.416C1.16456 41.328 1.4099 40.352 1.90056 39.488C2.39123 38.6133 3.0579 37.9307 3.90056 37.44C4.7539 36.9493 5.6979 36.704 6.73256 36.704C7.94856 36.704 9.0099 36.9973 9.91656 37.584C10.8232 38.1707 11.4846 39.0027 11.9006 40.08H10.1566C9.84723 39.408 9.39923 38.8907 8.81256 38.528C8.23656 38.1653 7.54323 37.984 6.73256 37.984C5.9539 37.984 5.25523 38.1653 4.63656 38.528C4.0179 38.8907 3.53256 39.408 3.18056 40.08C2.82856 40.7413 2.65256 41.52 2.65256 42.416C2.65256 43.3013 2.82856 44.08 3.18056 44.752C3.53256 45.4133 4.0179 45.9253 4.63656 46.288C5.25523 46.6507 5.9539 46.832 6.73256 46.832C7.54323 46.832 8.23656 46.656 8.81256 46.304C9.39923 45.9413 9.84723 45.424 10.1566 44.752H11.9006C11.4846 45.8187 10.8232 46.6453 9.91656 47.232C9.0099 47.808 7.94856 48.096 6.73256 48.096C5.6979 48.096 4.7539 47.856 3.90056 47.376C3.0579 46.8853 2.39123 46.208 1.90056 45.344C1.4099 44.48 1.16456 43.504 1.16456 42.416ZM15.5239 40.656C15.7799 40.1547 16.1426 39.7653 16.6119 39.488C17.0919 39.2107 17.6733 39.072 18.3559 39.072V40.576H17.9719C16.3399 40.576 15.5239 41.4613 15.5239 43.232V48H14.0679V39.232H15.5239V40.656ZM28.0367 43.28C28.0367 43.5573 28.0207 43.8507 27.9887 44.16H20.9807C21.034 45.024 21.3274 45.7013 21.8607 46.192C22.4047 46.672 23.0607 46.912 23.8287 46.912C24.458 46.912 24.9807 46.768 25.3967 46.48C25.8234 46.1813 26.122 45.7867 26.2927 45.296H27.8607C27.626 46.1387 27.1567 46.8267 26.4527 47.36C25.7487 47.8827 24.874 48.144 23.8287 48.144C22.9967 48.144 22.25 47.9573 21.5887 47.584C20.938 47.2107 20.426 46.6827 20.0527 46C19.6794 45.3067 19.4927 44.5067 19.4927 43.6C19.4927 42.6933 19.674 41.8987 20.0367 41.216C20.3994 40.5333 20.906 40.0107 21.5567 39.648C22.218 39.2747 22.9754 39.088 23.8287 39.088C24.6607 39.088 25.3967 39.2693 26.0367 39.632C26.6767 39.9947 27.1674 40.496 27.5087 41.136C27.8607 41.7653 28.0367 42.48 28.0367 43.28ZM26.5327 42.976C26.5327 42.4213 26.41 41.9467 26.1647 41.552C25.9194 41.1467 25.5834 40.8427 25.1567 40.64C24.7407 40.4267 24.2767 40.32 23.7647 40.32C23.0287 40.32 22.3994 40.5547 21.8767 41.024C21.3647 41.4933 21.0714 42.144 20.9967 42.976H26.5327ZM29.4146 43.584C29.4146 42.688 29.5959 41.904 29.9586 41.232C30.3212 40.5493 30.8172 40.0213 31.4466 39.648C32.0866 39.2747 32.7959 39.088 33.5746 39.088C34.3426 39.088 35.0092 39.2533 35.5746 39.584C36.1399 39.9147 36.5612 40.3307 36.8386 40.832V39.232H38.3106V48H36.8386V46.368C36.5506 46.88 36.1186 47.3067 35.5426 47.648C34.9772 47.9787 34.3159 48.144 33.5586 48.144C32.7799 48.144 32.0759 47.952 31.4466 47.568C30.8172 47.184 30.3212 46.6453 29.9586 45.952C29.5959 45.2587 29.4146 44.4693 29.4146 43.584ZM36.8386 43.6C36.8386 42.9387 36.7052 42.3627 36.4386 41.872C36.1719 41.3813 35.8092 41.008 35.3506 40.752C34.9026 40.4853 34.4066 40.352 33.8626 40.352C33.3186 40.352 32.8226 40.48 32.3746 40.736C31.9266 40.992 31.5692 41.3653 31.3026 41.856C31.0359 42.3467 30.9026 42.9227 30.9026 43.584C30.9026 44.256 31.0359 44.8427 31.3026 45.344C31.5692 45.8347 31.9266 46.2133 32.3746 46.48C32.8226 46.736 33.3186 46.864 33.8626 46.864C34.4066 46.864 34.9026 46.736 35.3506 46.48C35.8092 46.2133 36.1719 45.8347 36.4386 45.344C36.7052 44.8427 36.8386 44.2613 36.8386 43.6ZM42.2271 40.656C42.4831 40.1547 42.8457 39.7653 43.3151 39.488C43.7951 39.2107 44.3764 39.072 45.0591 39.072V40.576H44.6751C43.0431 40.576 42.2271 41.4613 42.2271 43.232V48H40.7711V39.232H42.2271V40.656ZM50.4614 43.6C50.4614 42.6933 50.6428 41.904 51.0054 41.232C51.3681 40.5493 51.8694 40.0213 52.5094 39.648C53.1601 39.2747 53.9014 39.088 54.7334 39.088C55.8108 39.088 56.6961 39.3493 57.3894 39.872C58.0934 40.3947 58.5574 41.12 58.7814 42.048H57.2134C57.0641 41.5147 56.7708 41.0933 56.3334 40.784C55.9068 40.4747 55.3734 40.32 54.7334 40.32C53.9014 40.32 53.2294 40.608 52.7174 41.184C52.2054 41.7493 51.9494 42.5547 51.9494 43.6C51.9494 44.656 52.2054 45.472 52.7174 46.048C53.2294 46.624 53.9014 46.912 54.7334 46.912C55.3734 46.912 55.9068 46.7627 56.3334 46.464C56.7601 46.1653 57.0534 45.7387 57.2134 45.184H58.7814C58.5468 46.08 58.0774 46.8 57.3734 47.344C56.6694 47.8773 55.7894 48.144 54.7334 48.144C53.9014 48.144 53.1601 47.9573 52.5094 47.584C51.8694 47.2107 51.3681 46.6827 51.0054 46C50.6428 45.3173 50.4614 44.5173 50.4614 43.6ZM68.5002 39.232V48H67.0442V46.704C66.7669 47.152 66.3775 47.504 65.8762 47.76C65.3855 48.0053 64.8415 48.128 64.2442 48.128C63.5615 48.128 62.9482 47.9893 62.4042 47.712C61.8602 47.424 61.4282 46.9973 61.1082 46.432C60.7989 45.8667 60.6442 45.1787 60.6442 44.368V39.232H62.0842V44.176C62.0842 45.04 62.3029 45.7067 62.7402 46.176C63.1775 46.6347 63.7749 46.864 64.5322 46.864C65.3109 46.864 65.9242 46.624 66.3722 46.144C66.8202 45.664 67.0442 44.9653 67.0442 44.048V39.232H68.5002ZM78.9586 43.28C78.9586 43.5573 78.9426 43.8507 78.9106 44.16H71.9026C71.9559 45.024 72.2492 45.7013 72.7826 46.192C73.3266 46.672 73.9826 46.912 74.7506 46.912C75.3799 46.912 75.9026 46.768 76.3186 46.48C76.7452 46.1813 77.0439 45.7867 77.2146 45.296H78.7826C78.5479 46.1387 78.0786 46.8267 77.3746 47.36C76.6706 47.8827 75.7959 48.144 74.7506 48.144C73.9186 48.144 73.1719 47.9573 72.5106 47.584C71.8599 47.2107 71.3479 46.6827 70.9746 46C70.6012 45.3067 70.4146 44.5067 70.4146 43.6C70.4146 42.6933 70.5959 41.8987 70.9586 41.216C71.3212 40.5333 71.8279 40.0107 72.4786 39.648C73.1399 39.2747 73.8972 39.088 74.7506 39.088C75.5826 39.088 76.3186 39.2693 76.9586 39.632C77.5986 39.9947 78.0892 40.496 78.4306 41.136C78.7826 41.7653 78.9586 42.48 78.9586 43.28ZM77.4546 42.976C77.4546 42.4213 77.3319 41.9467 77.0866 41.552C76.8412 41.1467 76.5052 40.8427 76.0786 40.64C75.6626 40.4267 75.1986 40.32 74.6866 40.32C73.9506 40.32 73.3212 40.5547 72.7986 41.024C72.2866 41.4933 71.9932 42.144 71.9186 42.976H77.4546ZM85.1524 39.072C86.2191 39.072 87.0831 39.3973 87.7444 40.048C88.4058 40.688 88.7364 41.616 88.7364 42.832V48H87.2964V43.04C87.2964 42.1653 87.0778 41.4987 86.6404 41.04C86.2031 40.5707 85.6058 40.336 84.8484 40.336C84.0804 40.336 83.4671 40.576 83.0084 41.056C82.5604 41.536 82.3364 42.2347 82.3364 43.152V48H80.8804V39.232H82.3364V40.48C82.6244 40.032 83.0138 39.6853 83.5044 39.44C84.0058 39.1947 84.5551 39.072 85.1524 39.072ZM92.8908 40.432V45.6C92.8908 46.0267 92.9815 46.3307 93.1628 46.512C93.3441 46.6827 93.6588 46.768 94.1068 46.768H95.1788V48H93.8668C93.0561 48 92.4481 47.8133 92.0428 47.44C91.6375 47.0667 91.4348 46.4533 91.4348 45.6V40.432H90.2988V39.232H91.4348V37.024H92.8908V39.232H95.1788V40.432H92.8908ZM96.3989 43.584C96.3989 42.688 96.5803 41.904 96.9429 41.232C97.3056 40.5493 97.8016 40.0213 98.4309 39.648C99.0709 39.2747 99.7803 39.088 100.559 39.088C101.327 39.088 101.994 39.2533 102.559 39.584C103.124 39.9147 103.546 40.3307 103.823 40.832V39.232H105.295V48H103.823V46.368C103.535 46.88 103.103 47.3067 102.527 47.648C101.962 47.9787 101.3 48.144 100.543 48.144C99.7643 48.144 99.0603 47.952 98.4309 47.568C97.8016 47.184 97.3056 46.6453 96.9429 45.952C96.5803 45.2587 96.3989 44.4693 96.3989 43.584ZM103.823 43.6C103.823 42.9387 103.69 42.3627 103.423 41.872C103.156 41.3813 102.794 41.008 102.335 40.752C101.887 40.4853 101.391 40.352 100.847 40.352C100.303 40.352 99.8069 40.48 99.3589 40.736C98.9109 40.992 98.5536 41.3653 98.2869 41.856C98.0203 42.3467 97.8869 42.9227 97.8869 43.584C97.8869 44.256 98.0203 44.8427 98.2869 45.344C98.5536 45.8347 98.9109 46.2133 99.3589 46.48C99.8069 46.736 100.303 46.864 100.847 46.864C101.391 46.864 101.887 46.736 102.335 46.48C102.794 46.2133 103.156 45.8347 103.423 45.344C103.69 44.8427 103.823 44.2613 103.823 43.6Z" fill="white"/>
<path d="M47.9375 22.0312C49.25 21.1146 50.5521 20.4115 51.8438 19.9219C53.1354 19.4323 54.5208 19.1875 56 19.1875C57.4792 19.1875 58.8698 19.4323 60.1719 19.9219C61.474 20.4115 62.7812 21.1146 64.0938 22.0312C65.0104 20.9062 65.6615 19.7708 66.0469 18.625C66.4323 17.4792 66.625 16.2708 66.625 15C66.625 11.9792 65.6094 9.45312 63.5781 7.42188C61.5469 5.39062 59.0208 4.375 56 4.375C52.9792 4.375 50.4531 5.39062 48.4219 7.42188C46.3906 9.45312 45.375 11.9792 45.375 15C45.375 16.2708 45.5729 17.4792 45.9688 18.625C46.3646 19.7708 47.0208 20.9062 47.9375 22.0312ZM55.9942 15.9375C54.7897 15.9375 53.776 15.5241 52.9531 14.6973C52.1302 13.8705 51.7188 12.8549 51.7188 11.6504C51.7188 10.446 52.1321 9.43229 52.9589 8.60938C53.7857 7.78646 54.8014 7.375 56.0058 7.375C57.2103 7.375 58.224 7.78839 59.0469 8.61519C59.8698 9.44198 60.2812 10.4576 60.2812 11.6621C60.2812 12.8665 59.8679 13.8802 59.0411 14.7031C58.2143 15.526 57.1986 15.9375 55.9942 15.9375ZM56.0146 27.5C54.2965 27.5 52.6771 27.1719 51.1562 26.5156C49.6354 25.8594 48.3073 24.9635 47.1719 23.8281C46.0365 22.6927 45.1406 21.367 44.4844 19.8511C43.8281 18.3351 43.5 16.7153 43.5 14.9917C43.5 13.2681 43.8281 11.651 44.4844 10.1406C45.1406 8.63021 46.0365 7.30729 47.1719 6.17188C48.3073 5.03646 49.633 4.14062 51.1489 3.48438C52.6649 2.82812 54.2847 2.5 56.0083 2.5C57.7319 2.5 59.349 2.82812 60.8594 3.48438C62.3698 4.14062 63.6927 5.03646 64.8281 6.17188C65.9635 7.30729 66.8594 8.63054 67.5156 10.1416C68.1719 11.6527 68.5 13.2673 68.5 14.9854C68.5 16.7035 68.1719 18.3229 67.5156 19.8438C66.8594 21.3646 65.9635 22.6927 64.8281 23.8281C63.6927 24.9635 62.3695 25.8594 60.8584 26.5156C59.3473 27.1719 57.7327 27.5 56.0146 27.5ZM56 25.625C57.1458 25.625 58.2656 25.4583 59.3594 25.125C60.4531 24.7917 61.5312 24.2083 62.5938 23.375C61.5312 22.625 60.4479 22.0521 59.3438 21.6562C58.2396 21.2604 57.125 21.0625 56 21.0625C54.875 21.0625 53.7604 21.2604 52.6562 21.6562C51.5521 22.0521 50.4688 22.625 49.4062 23.375C50.4688 24.2083 51.5469 24.7917 52.6406 25.125C53.7344 25.4583 54.8542 25.625 56 25.625ZM56 14.0625C56.7083 14.0625 57.2865 13.8385 57.7344 13.3906C58.1823 12.9427 58.4062 12.3646 58.4062 11.6562C58.4062 10.9479 58.1823 10.3698 57.7344 9.92188C57.2865 9.47396 56.7083 9.25 56 9.25C55.2917 9.25 54.7135 9.47396 54.2656 9.92188C53.8177 10.3698 53.5938 10.9479 53.5938 11.6562C53.5938 12.3646 53.8177 12.9427 54.2656 13.3906C54.7135 13.8385 55.2917 14.0625 56 14.0625Z" fill="white"/>
</svg>
