<svg width="106" height="54" viewBox="0 0 106 54" fill="none" xmlns="http://www.w3.org/2000/svg">
<path d="M3.75831 36.3952V47.5472H2.30231V36.3952H3.75831ZM10.5118 38.6192C11.5785 38.6192 12.4425 38.9445 13.1038 39.5952C13.7651 40.2352 14.0958 41.1632 14.0958 42.3792V47.5472H12.6558V42.5872C12.6558 41.7125 12.4371 41.0458 11.9998 40.5872C11.5625 40.1178 10.9651 39.8832 10.2078 39.8832C9.43981 39.8832 8.82648 40.1232 8.36781 40.6032C7.91981 41.0832 7.69581 41.7818 7.69581 42.6992V47.5472H6.23981V38.7792H7.69581V40.0272C7.98381 39.5792 8.37315 39.2325 8.86381 38.9872C9.36515 38.7418 9.91448 38.6192 10.5118 38.6192ZM17.2262 37.3552C16.9489 37.3552 16.7142 37.2592 16.5222 37.0672C16.3302 36.8752 16.2342 36.6405 16.2342 36.3632C16.2342 36.0858 16.3302 35.8512 16.5222 35.6592C16.7142 35.4672 16.9489 35.3712 17.2262 35.3712C17.4929 35.3712 17.7169 35.4672 17.8982 35.6592C18.0902 35.8512 18.1862 36.0858 18.1862 36.3632C18.1862 36.6405 18.0902 36.8752 17.8982 37.0672C17.7169 37.2592 17.4929 37.3552 17.2262 37.3552ZM17.9302 38.7792V47.5472H16.4742V38.7792H17.9302ZM19.8677 43.1472C19.8677 42.2405 20.049 41.4512 20.4117 40.7792C20.7744 40.0965 21.2757 39.5685 21.9157 39.1952C22.5664 38.8218 23.3077 38.6352 24.1397 38.6352C25.217 38.6352 26.1024 38.8965 26.7957 39.4192C27.4997 39.9418 27.9637 40.6672 28.1877 41.5952H26.6197C26.4704 41.0618 26.177 40.6405 25.7397 40.3312C25.313 40.0218 24.7797 39.8672 24.1397 39.8672C23.3077 39.8672 22.6357 40.1552 22.1237 40.7312C21.6117 41.2965 21.3557 42.1018 21.3557 43.1472C21.3557 44.2032 21.6117 45.0192 22.1237 45.5952C22.6357 46.1712 23.3077 46.4592 24.1397 46.4592C24.7797 46.4592 25.313 46.3098 25.7397 46.0112C26.1664 45.7125 26.4597 45.2858 26.6197 44.7312H28.1877C27.953 45.6272 27.4837 46.3472 26.7797 46.8912C26.0757 47.4245 25.1957 47.6912 24.1397 47.6912C23.3077 47.6912 22.5664 47.5045 21.9157 47.1312C21.2757 46.7578 20.7744 46.2298 20.4117 45.5472C20.049 44.8645 19.8677 44.0645 19.8677 43.1472ZM30.8824 37.3552C30.6051 37.3552 30.3704 37.2592 30.1784 37.0672C29.9864 36.8752 29.8904 36.6405 29.8904 36.3632C29.8904 36.0858 29.9864 35.8512 30.1784 35.6592C30.3704 35.4672 30.6051 35.3712 30.8824 35.3712C31.1491 35.3712 31.3731 35.4672 31.5544 35.6592C31.7464 35.8512 31.8424 36.0858 31.8424 36.3632C31.8424 36.6405 31.7464 36.8752 31.5544 37.0672C31.3731 37.2592 31.1491 37.3552 30.8824 37.3552ZM31.5864 38.7792V47.5472H30.1304V38.7792H31.5864ZM33.5239 43.1312C33.5239 42.2352 33.7053 41.4512 34.0679 40.7792C34.4306 40.0965 34.9266 39.5685 35.5559 39.1952C36.1959 38.8218 36.9053 38.6352 37.6839 38.6352C38.4519 38.6352 39.1186 38.8005 39.6839 39.1312C40.2493 39.4618 40.6706 39.8778 40.9479 40.3792V38.7792H42.4199V47.5472H40.9479V45.9152C40.6599 46.4272 40.2279 46.8538 39.6519 47.1952C39.0866 47.5258 38.4253 47.6912 37.6679 47.6912C36.8893 47.6912 36.1853 47.4992 35.5559 47.1152C34.9266 46.7312 34.4306 46.1925 34.0679 45.4992C33.7053 44.8058 33.5239 44.0165 33.5239 43.1312ZM40.9479 43.1472C40.9479 42.4858 40.8146 41.9098 40.5479 41.4192C40.2813 40.9285 39.9186 40.5552 39.4599 40.2992C39.0119 40.0325 38.5159 39.8992 37.9719 39.8992C37.4279 39.8992 36.9319 40.0272 36.4839 40.2832C36.0359 40.5392 35.6786 40.9125 35.4119 41.4032C35.1453 41.8938 35.0119 42.4698 35.0119 43.1312C35.0119 43.8032 35.1453 44.3898 35.4119 44.8912C35.6786 45.3818 36.0359 45.7605 36.4839 46.0272C36.9319 46.2832 37.4279 46.4112 37.9719 46.4112C38.5159 46.4112 39.0119 46.2832 39.4599 46.0272C39.9186 45.7605 40.2813 45.3818 40.5479 44.8912C40.8146 44.3898 40.9479 43.8085 40.9479 43.1472ZM46.3364 40.2032C46.5924 39.7018 46.9551 39.3125 47.4244 39.0352C47.9044 38.7578 48.4858 38.6192 49.1684 38.6192V40.1232H48.7844C47.1524 40.1232 46.3364 41.0085 46.3364 42.7792V47.5472H44.8804V38.7792H46.3364V40.2032ZM58.2188 47.6912C57.5468 47.6912 56.9441 47.5792 56.4108 47.3552C55.8775 47.1205 55.4561 46.8005 55.1468 46.3952C54.8375 45.9792 54.6668 45.5045 54.6348 44.9712H56.1388C56.1815 45.4085 56.3841 45.7658 56.7468 46.0432C57.1201 46.3205 57.6055 46.4592 58.2028 46.4592C58.7575 46.4592 59.1948 46.3365 59.5148 46.0912C59.8348 45.8458 59.9948 45.5365 59.9948 45.1632C59.9948 44.7792 59.8241 44.4965 59.4828 44.3152C59.1415 44.1232 58.6135 43.9365 57.8988 43.7552C57.2481 43.5845 56.7148 43.4138 56.2988 43.2432C55.8935 43.0618 55.5415 42.8005 55.2428 42.4592C54.9548 42.1072 54.8108 41.6485 54.8108 41.0832C54.8108 40.6352 54.9441 40.2245 55.2108 39.8512C55.4775 39.4778 55.8561 39.1845 56.3468 38.9712C56.8375 38.7472 57.3975 38.6352 58.0268 38.6352C58.9975 38.6352 59.7815 38.8805 60.3788 39.3712C60.9761 39.8618 61.2961 40.5338 61.3388 41.3872H59.8828C59.8508 40.9285 59.6641 40.5605 59.3228 40.2832C58.9921 40.0058 58.5441 39.8672 57.9788 39.8672C57.4561 39.8672 57.0401 39.9792 56.7308 40.2032C56.4215 40.4272 56.2668 40.7205 56.2668 41.0832C56.2668 41.3712 56.3575 41.6112 56.5388 41.8032C56.7308 41.9845 56.9655 42.1338 57.2428 42.2512C57.5308 42.3578 57.9255 42.4805 58.4268 42.6192C59.0561 42.7898 59.5681 42.9605 59.9628 43.1312C60.3575 43.2912 60.6935 43.5365 60.9708 43.8672C61.2588 44.1978 61.4081 44.6298 61.4188 45.1632C61.4188 45.6432 61.2855 46.0752 61.0188 46.4592C60.7521 46.8432 60.3735 47.1472 59.8828 47.3712C59.4028 47.5845 58.8481 47.6912 58.2188 47.6912ZM71.4742 42.8272C71.4742 43.1045 71.4582 43.3978 71.4262 43.7072H64.4182C64.4715 44.5712 64.7649 45.2485 65.2982 45.7392C65.8422 46.2192 66.4982 46.4592 67.2662 46.4592C67.8955 46.4592 68.4182 46.3152 68.8342 46.0272C69.2609 45.7285 69.5595 45.3338 69.7302 44.8432H71.2982C71.0635 45.6858 70.5942 46.3738 69.8902 46.9072C69.1862 47.4298 68.3115 47.6912 67.2662 47.6912C66.4342 47.6912 65.6875 47.5045 65.0262 47.1312C64.3755 46.7578 63.8635 46.2298 63.4902 45.5472C63.1169 44.8538 62.9302 44.0538 62.9302 43.1472C62.9302 42.2405 63.1115 41.4458 63.4742 40.7632C63.8369 40.0805 64.3435 39.5578 64.9942 39.1952C65.6555 38.8218 66.4129 38.6352 67.2662 38.6352C68.0982 38.6352 68.8342 38.8165 69.4742 39.1792C70.1142 39.5418 70.6049 40.0432 70.9462 40.6832C71.2982 41.3125 71.4742 42.0272 71.4742 42.8272ZM69.9702 42.5232C69.9702 41.9685 69.8475 41.4938 69.6022 41.0992C69.3569 40.6938 69.0209 40.3898 68.5942 40.1872C68.1782 39.9738 67.7142 39.8672 67.2022 39.8672C66.4662 39.8672 65.8369 40.1018 65.3142 40.5712C64.8022 41.0405 64.5089 41.6912 64.4342 42.5232H69.9702ZM76.5001 47.6912C75.8281 47.6912 75.2254 47.5792 74.6921 47.3552C74.1587 47.1205 73.7374 46.8005 73.4281 46.3952C73.1187 45.9792 72.9481 45.5045 72.9161 44.9712H74.4201C74.4627 45.4085 74.6654 45.7658 75.0281 46.0432C75.4014 46.3205 75.8867 46.4592 76.4841 46.4592C77.0387 46.4592 77.4761 46.3365 77.7961 46.0912C78.1161 45.8458 78.2761 45.5365 78.2761 45.1632C78.2761 44.7792 78.1054 44.4965 77.7641 44.3152C77.4227 44.1232 76.8947 43.9365 76.1801 43.7552C75.5294 43.5845 74.9961 43.4138 74.5801 43.2432C74.1747 43.0618 73.8227 42.8005 73.5241 42.4592C73.2361 42.1072 73.0921 41.6485 73.0921 41.0832C73.0921 40.6352 73.2254 40.2245 73.4921 39.8512C73.7587 39.4778 74.1374 39.1845 74.6281 38.9712C75.1187 38.7472 75.6787 38.6352 76.3081 38.6352C77.2787 38.6352 78.0627 38.8805 78.6601 39.3712C79.2574 39.8618 79.5774 40.5338 79.6201 41.3872H78.1641C78.1321 40.9285 77.9454 40.5605 77.6041 40.2832C77.2734 40.0058 76.8254 39.8672 76.2601 39.8672C75.7374 39.8672 75.3214 39.9792 75.0121 40.2032C74.7027 40.4272 74.5481 40.7205 74.5481 41.0832C74.5481 41.3712 74.6387 41.6112 74.8201 41.8032C75.0121 41.9845 75.2467 42.1338 75.5241 42.2512C75.8121 42.3578 76.2067 42.4805 76.7081 42.6192C77.3374 42.7898 77.8494 42.9605 78.2441 43.1312C78.6387 43.2912 78.9747 43.5365 79.2521 43.8672C79.5401 44.1978 79.6894 44.6298 79.7001 45.1632C79.7001 45.6432 79.5667 46.0752 79.3001 46.4592C79.0334 46.8432 78.6547 47.1472 78.1641 47.3712C77.6841 47.5845 77.1294 47.6912 76.5001 47.6912ZM82.5074 37.3552C82.2301 37.3552 81.9954 37.2592 81.8034 37.0672C81.6114 36.8752 81.5154 36.6405 81.5154 36.3632C81.5154 36.0858 81.6114 35.8512 81.8034 35.6592C81.9954 35.4672 82.2301 35.3712 82.5074 35.3712C82.7741 35.3712 82.9981 35.4672 83.1794 35.6592C83.3714 35.8512 83.4674 36.0858 83.4674 36.3632C83.4674 36.6405 83.3714 36.8752 83.1794 37.0672C82.9981 37.2592 82.7741 37.3552 82.5074 37.3552ZM83.2114 38.7792V47.5472H81.7554V38.7792H83.2114ZM89.5169 47.6912C88.6956 47.6912 87.9489 47.5045 87.2769 47.1312C86.6156 46.7578 86.0929 46.2298 85.7089 45.5472C85.3356 44.8538 85.1489 44.0538 85.1489 43.1472C85.1489 42.2512 85.3409 41.4618 85.7249 40.7792C86.1196 40.0858 86.6529 39.5578 87.3249 39.1952C87.9969 38.8218 88.7489 38.6352 89.5809 38.6352C90.4129 38.6352 91.1649 38.8218 91.8369 39.1952C92.5089 39.5578 93.0369 40.0805 93.4209 40.7632C93.8156 41.4458 94.0129 42.2405 94.0129 43.1472C94.0129 44.0538 93.8103 44.8538 93.4049 45.5472C93.0103 46.2298 92.4716 46.7578 91.7889 47.1312C91.1063 47.5045 90.3489 47.6912 89.5169 47.6912ZM89.5169 46.4112C90.0396 46.4112 90.5303 46.2885 90.9889 46.0432C91.4476 45.7978 91.8156 45.4298 92.0929 44.9392C92.3809 44.4485 92.5249 43.8512 92.5249 43.1472C92.5249 42.4432 92.3863 41.8458 92.1089 41.3552C91.8316 40.8645 91.4689 40.5018 91.0209 40.2672C90.5729 40.0218 90.0876 39.8992 89.5649 39.8992C89.0316 39.8992 88.5409 40.0218 88.0929 40.2672C87.6556 40.5018 87.3036 40.8645 87.0369 41.3552C86.7703 41.8458 86.6369 42.4432 86.6369 43.1472C86.6369 43.8618 86.7649 44.4645 87.0209 44.9552C87.2876 45.4458 87.6396 45.8138 88.0769 46.0592C88.5143 46.2938 88.9943 46.4112 89.5169 46.4112ZM91.1489 36.1872L87.7409 38.0112V36.9232L91.1489 34.9232V36.1872ZM100.199 38.6192C101.266 38.6192 102.13 38.9445 102.791 39.5952C103.453 40.2352 103.783 41.1632 103.783 42.3792V47.5472H102.343V42.5872C102.343 41.7125 102.125 41.0458 101.687 40.5872C101.25 40.1178 100.653 39.8832 99.8953 39.8832C99.1273 39.8832 98.514 40.1232 98.0553 40.6032C97.6073 41.0832 97.3833 41.7818 97.3833 42.6992V47.5472H95.9273V38.7792H97.3833V40.0272C97.6713 39.5792 98.0606 39.2325 98.5513 38.9872C99.0526 38.7418 99.602 38.6192 100.199 38.6192Z" fill="white"/>
<path d="M52.5175 26.7453V24.8349H62.1334V5.73112H52.5175V3.82074H62.1334C62.648 3.82074 63.0983 4.01178 63.4842 4.39385C63.8701 4.77593 64.0631 5.22168 64.0631 5.73112V24.8349C64.0631 25.3443 63.8701 25.7901 63.4842 26.1722C63.0983 26.5542 62.648 26.7453 62.1334 26.7453H52.5175ZM50.7487 20.8549L49.3658 19.4858L52.6462 16.2382H40.9077V14.3278H52.5819L49.3015 11.0802L50.6844 9.71107L56.3446 15.3148L50.7487 20.8549Z" fill="white"/>
</svg>
